# xmcd
#
# Track frame offsets: 
#        150
#        26170
#        43632
#        54817
#        71547
#        98890
#        115522
#        135407
#        159517
#
# Disc length: 2382 seconds
#
# Revision: 0
# Processed by: cddbd v1.5.2PL0 Copyright (c) Steve Scherf et al.
# Submitted via: ExactAudioCopy v0.99pb4
#
DISCID=6a094c09
DTITLE=The Ingram Kingdom (Ingram Family)   - The Funk Is In Our Music
DYEAR=1976
DGENRE=Soul
TTITLE0=Ingram Kingdom
TTITLE1=Tried It And Liked It
TTITLE2=What Else Can I Say
TTITLE3=He's Mine
TTITLE4=Music Is Our Message
TTITLE5=The Funk Lies In Our Music
TTITLE6=Someone's On Our Side
TTITLE7=She's All Alone
TTITLE8=Put Your Troubles Behind
EXTD=
EXTT0=
EXTT1=
EXTT2=
EXTT3=
EXTT4=
EXTT5=
EXTT6=
EXTT7=
EXTT8=
PLAYORDER=
